<svg xmlns="http://www.w3.org/2000/svg" width="500" height="500" viewBox="0 0 200 200" style="overflow:hidden!important"><defs><radialGradient id="i" cx="100" cy="114" r="41" gradientUnits="userSpaceOnUse" class="svga-on-canvas-facehighlight-gradient-single-0"><stop stop-opacity=".5" stop-color="#ffe2d6" offset="0"/><stop stop-opacity="0" stop-color="#ffd0bc" offset=".9"/></radialGradient><radialGradient id="j" cx="100" cy="54" r="37" gradientUnits="userSpaceOnUse" class="svga-on-canvas-facehighlight-gradient-single-1"><stop stop-opacity=".5" stop-color="#ffe2d6" offset="0"/><stop stop-opacity="0" stop-color="#ffd0bc" offset=".9"/></radialGradient><radialGradient id="c" cx="126.452" cy="84.563" r="15.179" gradientTransform="matrix(-.9148 .0479 .0523 .9986 184.433 -6.601)" gradientUnits="userSpaceOnUse" class="svga-on-canvas-eyesback-gradient-left-0"><stop stop-color="#fff" offset="0"/><stop stop-color="#fdfefe" offset=".544"/><stop stop-color="#f6f8f9" offset=".74"/><stop stop-color="#eaeff2" offset=".879"/><stop stop-color="#d9e3e8" offset=".992"/><stop stop-color="#d8e2e7" offset="1"/></radialGradient><radialGradient id="f" cx="126.017" cy="84.585" r="15.179" gradientTransform="matrix(.9148 .0479 -.0523 .9986 15.567 -6.601)" gradientUnits="userSpaceOnUse" class="svga-on-canvas-eyesback-gradient-right-0"><stop stop-color="#fff" offset="0"/><stop stop-color="#fdfefe" offset=".544"/><stop stop-color="#f6f8f9" offset=".74"/><stop stop-color="#eaeff2" offset=".879"/><stop stop-color="#d9e3e8" offset=".992"/><stop stop-color="#d8e2e7" offset="1"/></radialGradient><radialGradient id="d" cx="122.781" cy="80.48" fx="136.429" fy="80.114" r="16.914" gradientTransform="matrix(.99 .1411 .1085 -.7608 -53.062 124.379)" gradientUnits="userSpaceOnUse" class="svga-on-canvas-eyesfront-gradient-left-3"><stop stop-color="#f0b399" offset="0"/><stop stop-opacity=".3" stop-color="#f0b399" offset=".7"/><stop stop-opacity="0" stop-color="#ffd0bc" offset="1"/></radialGradient><radialGradient id="e" cx="70.049" cy="105.782" r="29.51" gradientTransform="translate(-1.941 1.255) scale(1.0336)" gradientUnits="userSpaceOnUse" class="svga-on-canvas-eyesfront-gradient-left-4"><stop stop-opacity="0" offset=".95"/><stop stop-opacity=".2" offset="1"/></radialGradient><radialGradient id="g" cx="122.382" cy="80.48" fx="136.03" fy="80.114" r="16.914" gradientTransform="matrix(-.99 .1411 -.1085 -.7608 252.267 124.435)" gradientUnits="userSpaceOnUse" class="svga-on-canvas-eyesfront-gradient-right-3"><stop stop-color="#f0b399" offset="0"/><stop stop-opacity=".3" stop-color="#f0b399" offset=".7"/><stop stop-opacity="0" stop-color="#ffd0bc" offset="1"/></radialGradient><radialGradient id="h" cx="70.436" cy="105.782" r="29.51" gradientTransform="matrix(-1.0336 0 0 1.0336 201.941 1.255)" gradientUnits="userSpaceOnUse" class="svga-on-canvas-eyesfront-gradient-right-4"><stop stop-opacity="0" offset=".95"/><stop stop-opacity=".2" offset="1"/></radialGradient><linearGradient id="a" x1="100" y1="171" x2="100" y2="128" gradientUnits="userSpaceOnUse" class="svga-on-canvas-chinshadow-gradient-single-0"><stop stop-opacity=".8" stop-color="#f0b399" offset="0"/><stop stop-color="#d17f5b" offset=".7"/></linearGradient><linearGradient id="b" x1="100" y1="141" x2="100" y2="137" gradientUnits="userSpaceOnUse" class="svga-on-canvas-mouth-gradient-single-0"><stop stop-color="#f7c1aa" offset=".1"/><stop stop-color="#f0b399" offset="1"/></linearGradient></defs><path d="M100.425 101.885h-.85v-.85h.85v.85z" fill="#2a232b"/><path d="M181.104 186.272c-1.866-4.034-6.965-10.012-12.63-11.664-7.004-2.043-22.812-4.512-28.674-5.885-4.698-1.101-14.162-9.6-17.479-12.452-.595-.51-1.082-1.563-1.094-2.346-.118-9.234 3.566-33.765 3.566-33.765H75.208s3.684 24.53 3.564 33.765c-.01.783-.499 1.836-1.092 2.346-3.317 2.853-12.78 11.35-17.48 12.452-5.862 1.373-21.67 3.927-28.672 5.97-5.667 1.65-10.765 7.544-12.631 11.578C15.745 193.078 15 205.396 15 216.02h170c0-10.624-.745-22.943-3.896-29.75z" fill="#ffd0bc"/><path d="M150.283 172.91c20.69 3.01 29.398 7.401 32.125 43.112H185c0-10.625-.745-22.943-3.896-29.75-1.866-4.034-6.965-10.012-12.63-11.663-7.004-2.043-22.812-4.512-28.674-5.885-4.698-1.101-15.505-10.258-18.396-13.897 2.856 3.998 10.872 13.264 17.896 15.69 3.36 1.162 6.158 1.69 10.983 2.393zM60.7 170.518c7.024-2.426 15.04-11.693 17.896-15.691-2.89 3.638-13.697 12.796-18.396 13.897-5.862 1.373-21.67 3.926-28.673 5.969-5.666 1.65-10.765 7.545-12.631 11.579-3.15 6.806-3.896 19.125-3.896 29.75h2.592c2.71-35.483 11.454-40.106 32.125-43.113 4.824-.701 7.623-1.23 10.983-2.391z" fill="#ffe2d6"/><path d="M96.3 184.437s-4.314-1.367-6.021-2.022c-8.882-3.407-37.736-5.616-37.736-5.616s30.39 1.206 37.097 2.362c-.389-4.052-2.564-17.003-2.564-17.003s4.376 14.293 5.447 17.898c.573 1.928 3.776 4.381 3.776 4.381zm9.178-1.14c-.075.062-.162.142-.256.227.096-.072.182-.147.256-.227zm-9.179 1.14s2.46 2.544 3.695 2.576c1.624.043 4.104-2.464 5.228-3.489-1.075.814-3.535 1.183-4.513 1.221-1.13.043-4.41-.308-4.41-.308zm17.865-6.39c-1.313.21-3.728.67-3.728.67l1.944-12.657c-.549 2.61-3.803 13.78-6.902 17.237 1.624-1.374 5.235-2.033 7.076-2.299 8.7-1.261 8.697-1.26 34.902-4.199 0 0-24.71-.131-33.292 1.247z" fill="#f0b399"/><path d="M181.104 186.272c-1.866-4.034-6.965-10.012-12.63-11.664-7.004-2.043-22.812-4.512-28.674-5.885-4.698-1.101-14.162-9.6-17.479-12.452-.595-.51-1.082-1.563-1.094-2.346-.118-9.234 3.566-33.765 3.566-33.765H75.208s3.684 24.53 3.564 33.765c-.01.783-.499 1.836-1.092 2.346-3.317 2.853-12.78 11.35-17.48 12.452-5.862 1.373-21.67 3.927-28.672 5.97-5.667 1.65-10.765 7.544-12.631 11.578C15.745 193.078 15 205.396 15 216.02h170c0-10.624-.745-22.943-3.896-29.75z" fill="none" stroke="#d17f5b" stroke-width="1.275"/><path d="M124.272 162.248a3.725 3.725 0 0 1-.051-.515c-.094-7.38 1.819-22.721 3.098-32.078-15.699-1.984-38.937-1.975-54.637.016 1.279 9.359 3.19 24.687 3.094 32.062a3.11 3.11 0 0 1-.03.367c3.825 3.586 7.667 6.528 11.055 8.151 5.312 2.546 21.035 2.427 26.401 0 3.411-1.541 7.254-4.439 11.07-8.003z" fill="url(#a)" transform="matrix(.85 0 0 .85 15 16.46)"/><path d="M124.529 218.742H75.112v-47.756c18.913 3.994 31.348 3.687 49.417 0v47.756z" fill="#f3f1f3"/><path d="M106.324 218.513c-2.359 0-9.118.177-14.035-.196l-.009-.145c-.695-15.86.96-26.111 3.857-33.395l.04-.104-.078-.08c-.77-.768-2.062-1.644-3.43-2.57-1.369-.93-2.783-1.888-3.685-2.76.531-.622 1.186-1.235 1.996-1.87.208-.107.988-.717 5.078-4.226l.307-.263c.696-.152 1.818-.25 3.178-.25 1.855 0 4.021.189 5.535.48 1.327 1.239 2.933 4.529 3.534 6.094-.83 1.947-1.809 2.66-3.16 3.641-.657.479-1.403 1.021-2.253 1.795l-.07.064.017.094c3.422 17.264 3.423 21.296 3.423 25.196 0 1.718 0 5.618.288 8.487-.127.006-.309.008-.533.008z" fill="#131111"/><path d="M108.798 179.231c-.641-1.696-2.304-5.04-3.638-6.255-2.445-.479-6.786-.717-8.9-.204-.092.075-5.31 4.576-5.363 4.471-.77.602-1.52 1.278-2.142 2.031 1.751 1.765 5.656 3.873 7.225 5.44-3.103 7.803-4.53 18.352-3.868 33.473.009.094.009.196.017.29 5.743.441 14.068.28 14.918.189-.986-9.611 1.222-8.887-3.732-33.875 2.608-2.376 4.22-2.547 5.483-5.56zm-4.463 16.184a2.717 2.717 0 0 1-.043-.11c1.7 8.967 1.173 15.837 2.457 22.926-4.026-.27-10.212-.044-14.255-.044.313-6.119 1.01-26.932 4.029-33.78.144-.038.288-.07.432-.106l-.877 29.526 2.335-29.806.051-.007 1.531 27.714.354-27.824h.066l3.569 30.902-1.955-30.716c.267.053.535.12.8.198.026 0 .06.008.086.025.088.852.795 7.142 1.42 11.102zm-.749-11.738c-2.358-1.063-5.408-.872-7.76.204-1.428-1.54-3.467-2.615-6.4-4.582.468-.407 1.071-.91 1.879-1.538.068 0 2.958-2.356 3.009-2.406.782-.714 1.479-1.521 2.142-2.227 2.49-.102 6.145.017 8.347.12 1.275 1.594 2.49 3.99 3.408 5.898-1.667 2.44-3.316 3.528-4.625 4.531z"/><path d="M81.467 197.576c-9.804-34.06-5.377-25.144-7.99-38.522 1.724-4.091 3.365-8.874 4.286-9.858l.068-.074c1.948 20.406 7.615 11.591 20.217 23.564-7.204 4.806-13.882 17.282-16.581 24.89zm45.047-38.521c-1.23-3.147-3.465-7.758-4.433-8.782 1.21 17.577-12.874 14.069-20.697 22.27 7.49 4.856 14.597 17.561 17.146 25.037 11.152-36.987 5.143-20.748 7.984-38.525z" fill="#f3f1f4"/><path d="M121.93 149.882c0 4.367-.356 7.788-1.072 8.788-2.076 4.938-11.137 8.376-13.931 9.784-2.121 1.043-4.201 2.388-5.806 4.122 3.241 2.105 4.85 2.876 10.99 12.274 3.61 6.043 5.559 10.581 6.428 13.294 11.37-37.68 5.288-21.23 8.151-39.108-1.348-3.473-3.91-8.373-4.76-9.154zm3.102 16.6c-1.664 15.365-2.968 12.311-6.58 29.053-2.308-7.347-9.413-19.476-16.515-23.027 3.347-2.514 4.277-2.662 8.27-4.488 12.236-5.457 12.737-10.527 12.017-17.23 1.026 1.21 2.656 5.237 3.988 8.093-.73 2.674-1.061 6.492-1.18 7.598zm-42.713-3.91c-3.747-3.102-2.686-6.938-4.41-13.783-.767.85-2.675 5.637-4.607 10.247.473 2.377.578 6.28.646 7.514.475 10.372 1.487 10.85 7.505 31.586 2.576-7.57 9.824-20.715 17.204-25.508-5.891-5.377-13.307-7.418-16.338-10.056zm4.641 21.683c-1.888 3.116-3.84 6.358-5.414 11.288-3.776-17.229-5.1-14.42-6.57-29.036-.273-2.526-.525-5.123-1.19-7.616 1.392-3.05 3.383-8.74 4.02-9.346 1.162 6.016.057 11.443 4.82 14.446 2.227 1.696 9.438 4.522 14.891 8.806-3.307 1.963-5.087 3.12-10.557 11.458z" fill="#cfc8d7"/><path d="m117.271 194.81-1.027-2.255s7.775-23.949 9.131-30.791c.775 7.1-8.104 33.047-8.104 33.047zm-35.224-.937 1.22-2.77s-7.286-22.497-8.642-29.34c-.775 7.102 7.422 32.11 7.422 32.11z" fill="#e1e0e1"/><path d="M121.069 182.725c6.005-17.71 2.343-19.169 5.36-25.049.113-.222 1.186.89 1.302 1.394 1.11 4.81 45.347 14.737 46.745 15.808 1.238.9 4.803 2.667 4.803 2.667 4.196 7.71 6.597 9.093 7.777 29.736.11 2.62-.052 10.03-.052 12.02l-72.725-.575c.174-6.622 1.02-18.538 6.79-36.001zm-42.138 0c-6.005-17.71-2.342-19.169-5.36-25.049-.113-.222-1.186.89-1.302 1.394-1.11 4.81-45.347 14.737-46.745 15.808-1.238.9-4.803 2.667-4.803 2.667-4.196 7.71-6.597 9.093-7.777 29.736-.11 2.62.052 10.03.052 12.02l72.725-.575c-.174-6.622-1.02-18.538-6.79-36.001z" fill="#075e54"/><path d="M125.761 177.96c-3.87 13.93-9.155 26.449-11.48 40.766-.757-.006 1.267-19.29 6.788-36 6.005-17.71 2.343-19.169 5.36-25.05.065-.127-.527 1.68-.19 2.068-.124 6.568 1.492 11.648-.478 18.216zm-51.522 0c3.87 13.93 9.155 26.449 11.48 40.766.757-.006-1.267-19.29-6.788-36-6.005-17.71-2.342-19.169-5.36-25.05-.065-.127.527 1.68.19 2.068.125 6.568-1.492 11.648.478 18.216z" fill="#004f46"/><path d="M144.57 174.587s-1.94 2.177-7.34 5.884c4.516-5.002 6.597-7.011 6.597-7.011l.744 1.127zm1.85 10.093-1.3-1.161c-3.857 11.713-6.435 17.498-10.903 31.125 6.412-12.177 7.942-16.5 12.202-29.964zm-90.247-11.22s2.08 2.009 6.597 7.011c-5.4-3.707-7.34-5.884-7.34-5.884l.743-1.127zm9.61 41.184c-4.468-13.627-7.046-19.412-10.903-31.125l-1.3 1.161c4.26 13.464 5.79 17.787 12.203 29.964z" fill="#003f38"/><path d="M167.498 202.895c0-9.856 2.643-15.598 8.172-23.92.517.316.792.461 1.144.743-5.88 7.296-7.048 14.103-9.316 23.177zm-32.383 9.663c5.196-14.198 6.851-19.744 10.291-29.23-.977-.298-7.37-2.537-8.346-2.844.349.85 2.646 1.549 6.649 4.003 0 0-4.326 13.093-8.594 28.07zm6.988-39.207s-2.85 3.519-5.664 7.079c2.88-2.27 4.885-4.798 7.387-6.97-3.395-2.863-8.934-7.246-12.513-10.276 2.826 3.036 10.79 10.167 10.79 10.167zm44.66 45.948.242.002c0-1.99.162-9.4.052-12.02-1.18-20.643-3.582-22.027-7.777-29.736 0 0-3.565-1.767-4.803-2.667-1.134-.868-32.975-8.433-44.616-13.498 13.609 9.326 39.34 12.773 46.954 18.338 3.682 2.692 8.64 25.729 9.947 39.581zM23.17 179.692c.46-.326.526-.311.993-.62 5.53 8.323 8.338 13.967 8.338 23.822-2.268-9.073-3.834-16.163-9.33-23.202zm33.12 4.796c4.003-2.454 6.3-3.153 6.65-4.003-.977.306-7.37 2.546-8.347 2.844 3.44 9.486 5.095 15.032 10.29 29.23a796.327 796.327 0 0 0-8.593-28.071zm12.395-21.304c-3.578 3.03-9.118 7.413-12.513 10.276 2.502 2.173 4.509 4.7 7.388 6.97-2.816-3.56-5.665-7.08-5.665-7.08s7.966-7.13 10.79-10.166zm-45.5 16.534c7.615-5.565 33.345-9.013 46.954-18.338-11.641 5.065-43.482 12.63-44.616 13.498-1.238.9-4.803 2.667-4.803 2.667-4.196 7.71-6.597 9.093-7.777 29.736-.11 2.62.052 10.03.052 12.02l.243-.002c1.306-13.852 6.264-36.889 9.947-39.58z" fill="#136d63"/><path d="M127.41 157.878c-.042-.249-.377-.539-.628-.558-.252-.02-.367.39-.482.614-3.017 5.88.352 7.083-5.653 24.791-5.77 17.464-6.447 29.633-6.62 36.255l72.979.32c0-1.988.416-9.398.305-12.019-1.18-20.643-3.666-22.196-7.862-29.906 0 0-3.735-1.852-4.973-2.75-4.155-3.182-.501.019-18.725-5.1-14.94-4.366-15.747-5.591-21.164-7.098-1.095-.314-3.449-.7-5.908-2.424-.225-.157-1.19-1.64-1.27-2.125zm-12.982 60.296c3.17-20.03 5.172-25.27 9.602-40.183 2.993-9.438 1.34-14.797 2.765-19.159.075-.228.397-.24.486-.014 2.069 5.281 7.852 6.507 16.009 14.49-4.941 4.94-6.213 6.272-6.851 7.122.734.373 4.744 1.895 8.415 3.315-.209.652-11.403 32.317-11.535 32.742 8.5-18.34 9.598-23.979 12.087-33.158-.69-.52-6.708-2.73-7.726-3.094 3.633-3.76 4.683-4.587 6.4-6.775 1.379 0-13.493-11.32-14.22-12.08.392.31 2.339 1.183 2.558 1.268 12.48 4.39 2.605 2.404 29.92 10.2 2.611.664 6.252 1.332 8.95 1.598.186.017 4.586 2.318 7.098 3.374-6.11 6.354-10.027 14.563-10.888 25.075 2.736-10.766 4.208-16.396 11.169-24.496 6.477 13.109 5.741 11.216 7.845 40.553-17.52-.69-44.387-.849-72.084-.778zm-43.106-58.17c-2.46 1.724-4.813 2.109-5.908 2.423-5.417 1.507-6.224 2.733-21.164 7.098-18.224 5.12-14.57 1.92-18.725 5.1-1.238.9-4.973 2.75-4.973 2.75-4.196 7.71-6.682 9.263-7.862 29.907-.11 2.62.305 10.03.305 12.02l72.978-.32c-.172-6.623-.849-18.792-6.619-36.256-6.005-17.709-2.637-18.911-5.653-24.792-.116-.224-.23-.633-.482-.613-.25.02-.586.31-.627.558-.082.484-1.046 1.967-1.27 2.125zm-57.834 58.948c2.105-29.337 1.368-27.444 7.845-40.553 6.96 8.1 8.433 13.73 11.17 24.496-.862-10.512-4.778-18.721-10.889-25.075 2.512-1.056 6.912-3.357 7.097-3.374 2.7-.266 6.34-.934 8.951-1.598 27.315-7.796 17.441-5.81 29.92-10.2.22-.086 2.166-.958 2.558-1.268-.727.76-15.6 12.08-14.22 12.08 1.718 2.188 2.768 3.015 6.4 6.775-1.018.364-7.036 2.573-7.726 3.094 2.489 9.18 3.587 14.817 12.087 33.158-.132-.425-11.326-32.09-11.535-32.742 3.67-1.42 7.681-2.943 8.415-3.315-.638-.85-1.91-2.181-6.85-7.123 8.156-7.982 13.94-9.208 16.008-14.49.089-.226.41-.213.486.015 1.426 4.362-.229 9.72 2.766 19.159 4.429 14.912 6.432 20.153 9.601 40.183-27.697-.07-54.564.087-72.084.778z" fill="#00302b"/><path d="M55.135 85.74c-.822-2.114-6.87-5.102-9.528-4.63-3.007.533-4.112 3.702-3.714 6.05.938 5.515 3.397 7.837 4.502 12.144.931 3.632 2.918 5.722 3.9 7.266 1.207 1.894 2.32 6.24 2.57 6.874.393 1.003 1.787 3.436 4.25 3.311 2.834-.146 6.414-5.685 6.473-6.914.324-6.673-6.315-18.598-8.453-24.101z" fill="#ffd0bc" stroke="#d17f5b" stroke-width="1.275"/><path d="M55.76 108.226s.365-.91-.08-1.718c-.571-1.04-2.06-2.948-2.398-4.09-.276-.933-.136-2.928-.18-3.904-.08-1.725-1.269-2.907-1.639-3.897-2.476-6.624-5.773-10.73-7.65-11.582-1.388 3.39-.288 5.87 1.65 11.088-1.17-7.09-.046-9.307-.046-9.307s3.415 2.945 5.1 9.496c.306 1.182-.944 3.65-.705 4.85.3 1.505 3.556 4.42 4.468 5.639.712.95 1.48 3.425 1.48 3.425z" fill="#d17f5b"/><path d="M144.642 85.74c.822-2.114 6.87-5.102 9.53-4.63 3.008.533 4.112 3.702 3.713 6.05-.938 5.515-3.397 7.837-4.502 12.144-.932 3.632-2.92 5.722-3.9 7.266-1.207 1.894-2.32 6.24-2.57 6.874-.393 1.003-1.788 3.436-4.251 3.311-2.833-.146-6.414-5.685-6.471-6.914-.327-6.673 6.314-18.598 8.451-24.101z" fill="#ffd0bc" stroke="#d17f5b" stroke-width="1.275"/><path d="M144.017 108.226s-.365-.91.08-1.718c.571-1.04 2.06-2.948 2.397-4.09.276-.933.136-2.928.183-3.904.08-1.725 1.266-2.907 1.637-3.897 2.477-6.624 5.774-10.73 7.65-11.582 1.388 3.39.287 5.87-1.648 11.088 1.169-7.09.045-9.307.045-9.307s-3.415 2.945-5.102 9.496c-.303 1.182.945 3.65.706 4.85-.3 1.505-3.557 4.42-4.468 5.639-.711.95-1.48 3.425-1.48 3.425z" fill="#d17f5b"/><path d="M137.403 124.408c-4.252 8.691-17.04 24.171-26.18 28.276-4.561 2.05-17.926 2.15-22.441 0-9.05-4.307-21.9-19.599-26.181-28.276-4.771-9.668-12.623-41.27-12.634-41.316a52.912 52.912 0 0 1-1.703-13.28c-.044-28.9 23.08-52.358 51.656-52.402 28.578-.045 51.776 23.338 51.819 52.237a52.969 52.969 0 0 1-1.66 13.287c-.013.044-7.919 31.752-12.676 41.474z" fill="#ffd0bc"/><path d="M108.63 18.145c22.944 5.387 40.032 26.192 39.993 51.033a52.958 52.958 0 0 1-1.703 13.28c-.01.047-7.318 31.659-12.01 41.317-4.13 8.504-16.745 23.348-25.557 27.643-1.839.897-7.39 1.322-9.351 1.322-1.961 0-7.512-.425-9.35-1.322-8.812-4.295-21.428-19.14-25.557-27.643-4.693-9.658-12.001-41.27-12.01-41.316a52.914 52.914 0 0 1-1.704-13.28c-.038-24.842 17.048-45.647 39.994-51.034-24.5 4.16-43.15 25.713-43.111 51.667.007 4.589.598 9.04 1.703 13.28.01.046 7.848 31.655 12.634 41.316 4.294 8.669 17.176 23.872 26.18 28.276 2.26 1.106 7.91 1.577 11.012 1.575 3.099.003 9.172-.47 11.43-1.575 9.005-4.405 21.885-19.606 26.18-28.276 4.787-9.661 12.625-41.27 12.633-41.316a52.912 52.912 0 0 0 1.704-13.28c.04-25.954-18.611-47.506-43.11-51.667z" fill="#f7c1aa"/><path d="M137.403 124.408c-4.252 8.691-17.04 24.171-26.18 28.276-4.561 2.05-17.926 2.15-22.441 0-9.05-4.307-21.9-19.599-26.181-28.276-4.771-9.668-12.623-41.27-12.634-41.316a52.912 52.912 0 0 1-1.703-13.28c-.044-28.9 23.08-52.358 51.656-52.402 28.578-.045 51.776 23.338 51.819 52.237a52.969 52.969 0 0 1-1.66 13.287c-.013.044-7.919 31.752-12.676 41.474z" fill="none" stroke="#d17f5b" stroke-width="1.275"/><path d="M100.671 140.999c-5.683-.008-7.963-3.983-7.963-3.983 6.845 2.441 15.408.264 15.408.264s-1.739 3.728-7.445 3.719z" fill="url(#b)" transform="matrix(.85 0 0 .85 15 16.46)"/><path d="M84.516 127.434c3.034-.095 9.03-.518 11.229-.389 1.136.068 3 .85 4.225 1.116.853.187 4.092-.694 4.966-.698 2.284-.015 7.236 1.083 9.896 1.514.147.023 0 0 0 0s-6.544 5.59-14.926 5.222c-9.487-.417-15.39-6.765-15.39-6.765s-.15.004 0 0z" fill="#da7c87"/><path d="M115.082 128.81c-.073-.106-.545-.207-.72-.187-.317.037-.546.33-1.21.39-.77.07-4.841.692-5.952.664-2.235-.054-4.8.477-6.934.383-2.136-.093-5.494-.985-7.715-1.142-1.103-.078-5.63-1.133-6.38-1.281-.645-.128-.697-.43-.956-.516-.183-.063-.707-.02-.849.077-.123.085-.085.473 0 .58.212.26.993.37 1.563.483.792.156 5.386 1.222 6.52 1.302 2.198.158 5.6 1.108 7.754 1.202 2.152.095 4.767-.499 6.979-.443 1.137.029 5.267-.594 6.082-.666.59-.055 1.323-.152 1.595-.342.13-.09.293-.391.223-.503z" fill="#ac2e3d"/><path d="M100 133.118c-3.75-.163-9.664-1.625-11.928-3.53 1.385.166 4.382.41 5.756.59 1.698.225 4.047.852 5.776 1.013 1.867.172 4.42-.202 6.24-.359 1.522-.13 3.88-.562 5.398-.612-2.554 1.524-7.623 3.056-11.243 2.898zm6.084-3.943c1.361-.068 3.485-.533 4.84-.573-1.527-.418-3.825-.42-5.446-.593-1.399-.148-3.531.587-4.919.684-1.562.112-3.418-1.024-4.873-1.133-1.578-.118-4.873.24-6.421.513 1.322.145 4.199.368 5.5.58 1.597.26 3.888.82 5.544.894 1.699.075 4.097-.285 5.775-.372z" fill="#e28c96"/><path d="M100.005 132.447c-2.232-.1-5.94-.903-7.542-2.01.41.019 1.602.124 1.996.16.124.013.249.027.372.043.644.086 1.266.258 1.93.438.646.176 2.11.4 2.83.473.142.016.283.023.426.03.887.04 2.536-.053 3.352-.18.517-.08 1.004-.163 1.504-.21.272-.027.569-.04.902-.041.286-.003.586.005.88.014-1.501.761-4.349 1.384-6.65 1.283z" fill="#e99ca5"/><path d="M82.475 128.22s-.602-1.01-.518-1.389c.118-.526 1.635-1.572 1.635-1.572s-.918 1.202-1.06 1.583c-.137.368-.057 1.377-.057 1.377z" fill="#d17f5b"/><path d="M60.432 80.957c1.226-1.179 9.091-2.674 13.631-2.075 7.183.947 13 7.285 13 7.285s-4.836 3.083-13.61 3.56c-5.78.315-11.593-3.418-13.021-8.77z" fill="url(#c)" transform="matrix(.85 0 0 .85 15 16.46)"/><path d="M83.032 89.21a5.085 5.085 0 0 1-6.256 3.567 5.11 5.11 0 0 1-3.582-6.266 5.088 5.088 0 0 1 6.26-3.568 5.11 5.11 0 0 1 3.578 6.267z" fill="#080b15" stroke="#000" stroke-width=".425"/><path d="M82.24 89.273c-.722 2.084-2.897 3.299-5.015 2.72-1.955-.537-3.189-2.413-3.028-4.396a18.61 18.61 0 0 1 2.342-.034c-.008.028-.023.053-.03.082-.26.956.346 1.959 1.353 2.235 1.01.277 2.04-.277 2.3-1.233.034-.125.052-.25.056-.373.691.251 1.37.577 2.021 1z" fill="#111624"/><path d="M78.804 86.339c-1.023-.292-2.065.29-2.329 1.309-.264 1.012.35 2.072 1.372 2.365 1.024.294 2.066-.29 2.33-1.303.266-1.019-.35-2.078-1.373-2.371zm.222 3.597c-.425.133-.864-.043-.98-.393-.114-.349.138-.737.566-.866.428-.132.867.044.984.39.115.35-.139.737-.57.87z" opacity=".9"/><path d="M75.402 90.546c-.315.188-.784.02-1.052-.38-.269-.396-.229-.87.086-1.06.313-.186.787-.018 1.053.379.266.397.227.873-.087 1.06z" fill="#fff" opacity=".6"/><path d="M82.116 87.64c-.719.43-1.8.043-2.411-.868-.612-.91-.52-1.999.199-2.428.717-.433 1.8-.045 2.408.866.612.911.523 1.998-.196 2.43z" fill="#fff" opacity=".8"/><path d="M61.862 88.71c0 11.737 10.768 17.85 15.3 17.85 8.45 0 15.3-6.113 15.3-17.85 0-11.737-6.85-21.25-15.3-21.25s-15.3 9.513-15.3 21.25zm4.505-3.436C67.41 84.272 74.095 83 77.954 83.51c6.105.805 11.05 6.192 11.05 6.192s-4.111 2.62-11.569 3.026c-4.913.268-9.854-2.905-11.068-7.454z" fill="#ffd0bc"/><path d="M73.981 93.592c9.412 2.223 18.451-1.61 20.194-8.565 1.738-6.956-4.478-14.395-13.892-16.622-9.414-2.224-18.453 1.609-20.195 8.565-1.738 6.957 4.476 14.395 13.893 16.622zM60.432 80.957c1.226-1.179 9.091-2.674 13.631-2.075 7.183.947 13 7.285 13 7.285s-4.836 3.083-13.61 3.56c-5.78.315-11.593-3.418-13.021-8.77z" fill="url(#d)" transform="matrix(.85 0 0 .85 15 16.46)"/><path d="M60.432 80.957c1.226-1.179 9.091-2.674 13.631-2.075 7.183.947 13 7.285 13 7.285s-4.836 3.083-13.61 3.56c-5.78.315-11.593-3.418-13.021-8.77z" fill="url(#e)" transform="matrix(.85 0 0 .85 15 16.46)"/><path d="M88.637 86.55c-5.526-3.614-3.446-2.627-13.795-5.698 2.842.425 8.136 1.756 9.95 2.822.99.556 2.995 2.133 3.845 2.876z" fill="#d17f5b"/><path d="M65.025 85.214C66.68 89.4 73.3 97.08 89.917 89.917c-2.632-2.856-9.354-7.746-15.435-7.704-5.094.035-7.94 1.623-9.457 3zm1.342.16c1.042-.967 7.728-2.194 11.587-1.702 6.105.777 11.05 5.973 11.05 5.973s-4.111 2.527-11.569 2.918c-4.913.258-9.854-2.802-11.068-7.19z" fill="#302040"/><path d="M139.169 80.957c-1.226-1.179-9.091-2.674-13.631-2.075-7.183.947-13 7.285-13 7.285s4.836 3.083 13.61 3.56c5.78.315 11.592-3.418 13.021-8.77z" fill="url(#f)" transform="matrix(.85 0 0 .85 15 16.46)"/><path d="M126.807 89.21a5.086 5.086 0 0 1-6.257 3.567 5.11 5.11 0 0 1-3.582-6.266 5.088 5.088 0 0 1 6.26-3.568 5.11 5.11 0 0 1 3.58 6.267z" fill="#080b15" stroke="#000" stroke-width=".425"/><path d="M126.014 89.273c-.721 2.084-2.896 3.299-5.014 2.72-1.955-.537-3.19-2.413-3.028-4.396a18.612 18.612 0 0 1 2.342-.034c-.008.028-.023.053-.03.082-.26.956.346 1.959 1.354 2.235 1.01.277 2.04-.277 2.3-1.233a1.73 1.73 0 0 0 .056-.373c.69.251 1.37.577 2.02 1z" fill="#111624"/><path d="M122.579 86.339c-1.022-.292-2.065.29-2.328 1.309-.265 1.012.35 2.072 1.371 2.365 1.024.294 2.067-.29 2.331-1.303.264-1.019-.352-2.078-1.374-2.371zm.222 3.597c-.425.133-.865-.043-.98-.393-.114-.349.138-.737.566-.866.428-.132.867.044.984.39.115.35-.139.737-.57.87z" opacity=".9"/><path d="M119.178 90.546c-.315.188-.785.02-1.053-.38-.268-.396-.229-.87.087-1.06.312-.186.787-.018 1.053.379.266.397.226.873-.087 1.06z" fill="#fff" opacity=".6"/><path d="M125.891 87.64c-.719.43-1.799.043-2.411-.868-.612-.91-.52-1.999.199-2.428.718-.433 1.799-.045 2.408.866.612.911.524 1.998-.196 2.43z" fill="#fff" opacity=".8"/><path d="M122.499 67.46c-8.45 0-15.3 9.514-15.3 21.25 0 11.737 6.85 17.85 15.3 17.85 6.12 0 15.3-6.113 15.3-17.85 0-11.737-6.851-21.25-15.3-21.25zm-.273 25.268c-7.458-.404-11.569-3.026-11.569-3.026s4.945-5.387 11.05-6.192c3.86-.51 10.545.762 11.587 1.764-1.215 4.55-6.155 7.722-11.068 7.454z" fill="#ffd0bc"/><path d="M139.512 76.971c-1.742-6.956-10.781-10.79-20.195-8.565-9.414 2.227-15.63 9.666-13.892 16.622 1.743 6.955 10.782 10.788 20.194 8.565 9.417-2.228 15.632-9.666 13.893-16.622zm-13.364 12.756c-8.774-.476-13.61-3.56-13.61-3.56s5.817-6.338 13-7.285c4.54-.6 12.405.896 13.631 2.075-1.429 5.352-7.241 9.085-13.021 8.77z" fill="url(#g)" transform="matrix(.85 0 0 .85 15 16.46)"/><path d="M139.169 80.957c-1.226-1.179-9.091-2.674-13.631-2.075-7.183.947-13 7.285-13 7.285s4.836 3.083 13.61 3.56c5.78.315 11.592-3.418 13.021-8.77z" fill="url(#h)" transform="matrix(.85 0 0 .85 15 16.46)"/><path d="M111.024 86.55c5.526-3.614 3.446-2.627 13.795-5.698-2.842.425-8.136 1.756-9.95 2.822-.99.556-2.995 2.133-3.845 2.876z" fill="#d17f5b"/><path d="M125.179 82.212c-6.081-.042-12.804 4.848-15.435 7.704 16.618 7.164 23.237-.516 24.892-4.703-1.517-1.377-4.364-2.965-9.457-3zm-2.953 10.351c-7.458-.39-11.569-2.918-11.569-2.918s4.945-5.196 11.05-5.973c3.86-.492 10.545.735 11.587 1.701-1.215 4.388-6.155 7.448-11.068 7.19z" fill="#302040"/><path d="M141 113.974c.035 22.622-18.292 40.994-40.938 41.025-22.642.037-41.028-18.273-41.063-40.9-.035-22.62 18.292-41.064 40.937-41.1 22.643-.035 41.031 18.35 41.064 40.975z" fill="url(#i)" transform="matrix(.85 0 0 .85 15 16.46)"/><path d="M137.5 53.999c0 20.711-16.789 37.5-37.499 37.5-20.711 0-37.501-16.789-37.501-37.5s16.79-37.5 37.501-37.5c20.71 0 37.499 16.789 37.499 37.5z" fill="url(#j)" transform="matrix(.85 0 0 .85 15 16.46)"/><path d="M60.9 79.521c8.461-8.478 14.247-5.028 26-2.774.719.137 5.373 1.308 4.514 2.948-.41.786-1.73.692-2.467.679-11.635-.218-17.293-8.496-28.047-.853zM139.1 79.521c-8.46-8.478-14.247-5.028-26-2.774-.72.137-5.373 1.308-4.515 2.948.41.786 1.73.692 2.468.679 11.634-.218 17.293-8.496 28.047-.853z" fill="#2a232b"/><path d="M92.448 114.635c-.746 1.754 5.044 3.648 7.241 3.764 2.38.125 9.05-2.465 7.919-4.243-1.19-1.866-5.647-.243-7.57-.243-1.915-.001-6.59-1.62-7.59.722z" fill="#f0b399"/><path d="M101.579 115.96c-.196-.645 1.594-1.347 2.258-1.44.936-.136 2.856.681 2.684 1.353-.156.593-1.826-.453-2.43-.365-.625.091-2.327 1.056-2.512.452zm-5.851-.21c.823 0 2.043.53 2.268.063.268-.557-1.818-1.242-2.431-1.167-.507.06-2.323 1.118-2.073 1.564.233.408 1.151-.46 2.236-.46z" fill="#d17f5b"/><path d="M100.076 111.66c.516 0 1.48-.63 1.523-1.896.17-5.107-.813-20.258-1.523-20.204-.663.05-1.927 14.991-1.656 20.204.067 1.277 1.073 1.896 1.656 1.896z" fill="#fff4ef" opacity=".2"/><path d="M100 31.87zM100 31.87z" fill="#2a232b"/><path d="M154.7 59.59c-.14-2.798-1.296-7.026-2.111-9.609-.946 1.628-1.04 1.628-1.596 2.488-.178-1.03-1.391-11.854-5.424-18.02-.463 1.625.047 3.49-.925 4.732-2.18-4.54-5.376-12.38-12.607-17.542.74 1.933.35 2.477.515 3.131-2.139-3.084-4.686-4.709-8.765-7.05 0 1.433.139 2.341.139 2.341-1.494-1.723-4.913-6.548-9.298-9.324.206.745-.214 2.36-.064 3.158-1.437-3.059-5.84-8.986-10.162-8.264-1.232-1.224-2.258-3.303-3.37-4.689-.696 3.68-6.489 11.758-12.474 15.388.197-1.522-.086-2.865-.461-4.412-1.08 2.219-4.584 6.518-7.13 7.523.257-1.115.059-3.236.059-3.236-1.351 1.773-2.519 2.756-4.301 4.322.022-.996.53-3.096.832-4.147-2.804 1.242-5.584 4.54-7.623 6.93-.222-1.363.23-4.219.69-4.847-10.024 6.63-14.767 11.958-19.337 24.78-.298-.638-.504-1.42-.6-3.54-5.717 9.296-8.96 15.738-2.94 38.94-1.229-.73-1.899-1.26-2.874-2.22 1.44 9.671 3.541 12.878 10.777 21.132 3.56-4.157 1.649-11.469 1.066-14.942.084-5.246 1.546-4.337 1.76-6.714.098-1.067.66-2.862.56-3.928-.4-4.27.963-11.87 2.955-16.87 3.053-4.486 6.556-7.5 11.09-10.225 7.16-1.42 13.815 1.534 15.85 2.061 3.677.952 18.44.952 22.118 0 2.546-.659 9.666-3.65 17.022-1.696 5.553 3.176 8.652 6.155 10.933 11.926 1.455 4.59 2.282 10.3 1.938 13.953-.1 1.066.382 3.712.479 4.78.088.974 1.332 3.135 1.565 4.085.955 3.92-1.052 14.378-1.052 14.378-.055 1.468.076 2.917.549 4.315 5.266-3.287 5.622-5.23 6.377-7.705.622-2.048 3.932-9.792 4.032-11.211-.671.74-2.048 1.66-2.78 2.007.602-2.342 3.359-6.766 3.893-9.32.939-4.503.926-8.191.696-12.859z" fill="#1b141c"/><path d="M154.7 59.59c-.14-2.798-1.296-7.026-2.111-9.609-.946 1.628-1.04 1.628-1.596 2.488-.178-1.03-1.391-11.854-5.424-18.02-.463 1.625.047 3.49-.925 4.732-2.18-4.54-5.376-12.38-12.607-17.542.74 1.933.35 2.477.515 3.131-2.139-3.084-4.686-4.709-8.765-7.05 0 1.433.139 2.341.139 2.341-1.494-1.723-4.913-6.548-9.298-9.324.206.745-.214 2.36-.064 3.158-1.437-3.059-5.84-8.986-10.162-8.264-1.232-1.224-2.258-3.303-3.37-4.689-.696 3.68-6.489 11.758-12.474 15.388.197-1.522-.086-2.865-.461-4.412-1.08 2.219-4.584 6.518-7.13 7.523.257-1.115.059-3.236.059-3.236-1.351 1.773-2.519 2.756-4.301 4.322.022-.996.53-3.096.832-4.147-2.804 1.242-5.584 4.54-7.623 6.93-.222-1.363.23-4.219.69-4.847-10.024 6.63-14.767 11.958-19.337 24.78-.298-.638-.504-1.42-.6-3.54-5.717 9.296-8.96 15.738-2.94 38.94-1.229-.73-1.899-1.26-2.874-2.22 1.4 9.402 3.44 12.708 10.199 20.466-3.236-5.465-7.17-10.142-8.622-16.679 1.7.85 4.25 2.55 5.95 3.4-4.25-11.9-8.5-27.2-2.55-38.25.85 3.4 3.006 7.426 4.706 9.976C50.839 45.242 59.2 32.61 65.15 24.96c0 4.25-.85 9.35.85 13.6 0-5.95 4.25-9.35 6.8-14.45 0 3.4-.85 5.95.85 9.35.85-4.25 1.7-8.5 4.25-11.9 1.7 3.4.85 6.8 2.55 10.2 0-5.1 2.55-7.65 3.4-11.9 1.873 4.31 3.4 5.1 4.25 8.5-.85-9.35 12.073-10.14 12.923-19.49.85 5.95 2.377 10.14 1.527 16.94 3.4-4.25 5.1-9.35 5.95-15.3 5.95 5.1 4.25 11.9 6.8 17.85 1.7-3.4 1.7-7.65 2.55-11.9 3.4 5.95 6.8 12.75 9.35 19.55.85-4.25 2.439-6.174 0-12.75 5.95 4.25 10.2 11.9 9.35 19.55.85-4.25 1.7-8.5 1.7-12.75.85 9.35 6.8 17.85 5.95 28.05 1.7-4.25 3.4-8.5 3.4-13.6.777 8.547 2.252 17.803-.095 26.472C148.809 67.757 151 64.757 151 60.66c2.55 9.35-5.95 17-5.1 26.35 0-1.449 2.465-2.282 3.193-3.55.07-.233.137-.466.207-.7 0 .251-.08.482-.207.7-1.348 4.576-2.496 9.143-4.23 13.572 3.02-2.353 3.377-4.027 3.996-6.059.622-2.048 3.932-9.792 4.032-11.211-.671.74-2.047 1.66-2.78 2.007.602-2.342 3.36-6.766 3.893-9.32.94-4.503.927-8.191.697-12.859z" fill="#2a232b"/><path d="M152.415 48.17c-.322 1.356-.413 1.664-.959 3-.408-4.765-2.512-12.49-6.252-17.867-.115 1.838-.212 2.829-.495 4.548-1.007-3.63-5.508-11.888-13.403-17.213.1.298.207.595.313.893v.008c.229.665.423 1.4.637 2.134-3.253-4.045-6.19-4.736-9.025-6.69.144.836.23 1.673.238 1.734-3.439-4.668-5.978-6.534-9.131-8.304.031.392.124 2.063.104 3.084-2.067-4.358-3.944-7.639-10.093-8.244-.44-.85-1.966-3.48-3.518-5.083-1.955 6.863-7.322 11.651-12.033 15.7 0-1.586-.257-3.146-.61-4.667-1.915 3.414-3.383 5.258-7.023 8.033.065-.651.133-2.61.082-3.8-.998 1.374-2.59 3.102-4.35 4.599 0 0 .989-4.164.997-4.208-.132.068-.266.128-.404.213-.825.207-4.414 2.508-7.575 6.638.308-2.91.89-3.978 1.097-4.828-9.437 5.408-16.924 13.831-19.887 24.6-.155-1.514-.223-2.797-.223-3.273-4.348 5.458-6.404 11.067-6.692 12.478-1.747 7.882.39 21.024 2.984 26.554-1.63-1.296-.157.003-2.72-2.32 0 4.002.85 6.819 2.316 10.276 2.072 4.885 4.998 7.948 8.86 11.39-3.983-4.87-9.426-11.647-10.5-20.51.72.707 1.139.988 2.374 1.929h.008v.008c.55.378.223.208.865.57C42.022 56.46 46.64 47.34 50.53 40.12c.105 3.358.696 4.853 1.822 6.715-.576-1.482-.504-.998-.948-2.796 3.078-9.82 10.337-17.827 18.149-24.463.205-.17.403-.332.61-.485-.273.702-.701 2.907-.701 4.259-1.788 2.536-2.111 4.708-2.275 5.635.283-.85.59-2.246 2.283-4.556v-.008c2.21-3.414 6.17-6.748 7.88-7.905-1.113 3.723-1.16 5.188-1.096 7.939.161-1.55.145-1.63.519-3.723a22.502 22.502 0 0 0 4.138-4.208c-.093 1.956.024 4.663-1.08 7.08.934-1.406 1.301-3.144 1.301-3.994 1.113-.684 3.79-1.834 6.89-7.14.671 4.54.171 7.045-.503 8.865.549-1.03 1.286-2.455 1.286-4.921 5.748-3.964 9.78-7.453 12.1-14.306.064-.263.132-.518.18-.773 1.29 1.855 6.463 10.115 5.424 12.316 1.315-1.334-1.04-6.337-1.962-8.05 6.499 1.628 7.106 3.434 11.537 12.598-.514-1.707-.948-3.203-1.242-4.038.109-1.554.005-2.295-.078-3.145 4.443 3.43 11.763 11.53 11.763 17.689.366-2.306.205-4.328-1.648-7.76-.23-.417-.462-.825-.711-1.182-.06-.534-.286-1.632-.286-1.632 1.531 1.618 4.891 1.983 8.875 7.973.528.72 2.967 5.435 3.931 7.114-2.018-5.627-2.584-6.521-3.296-7.845-.34-1.488-.308-1.378-.841-2.924 8.957 8.835 12.314 14.399 13.483 26.936.207-3.356.102-6.796-.864-9.996.274-1.193.468-2.529.607-3.816.591 1.225 2.994 7.261 4.172 13.09 1.025 5.152 1.012 8.3.758 11.772.87-3.6.942-6.807.816-8.066.309-.48.55-1.048.759-1.513 1.653 8.977 4.146 16.358-3.09 31.892.825-.44 2.326-1.268 3.214-2.33 0 0-2.532 6.04-3.89 9.912-2.37 5.898-2.1 5.265-6.035 8.347 4.349-1.802 5.548-4.32 6.974-7.99 2.688-7.835 2.433-5.235 4.467-12.844-.923 1.195-1.67 2.135-2.829 3.128 7.899-14.357 3.686-24.164 1.321-32.801z"/><path d="M100 31.87z" fill="#26120b"/></svg>